{"title":"X-Men Apocalypse 2016 720p HDCAM x264 HQMic-Exclusive","uid":14673822,"size":1308074704,"categoryP":"video","categoryS":"movies","magnet":"?xt=urn:btih:f9a7c9da0263270ae525e2f1c8d40cbfb5aeba27&amp;dn=X-Men+Apocalypse+2016+720p+HDCAM+x264+HQMic-Exclusive&amp;tr=udp%3A%2F%2Ftracker.leechers-paradise.org%3A6969&amp;tr=udp%3A%2F%2Fzer0day.ch%3A1337&amp;tr=udp%3A%2F%2Fopen.demonii.com%3A1337&amp;tr=udp%3A%2F%2Ftracker.coppersurfer.tk%3A6969&amp;tr=udp%3A%2F%2Fexodus.desync.com%3A6969","seeders":91,"leechers":24,"uploader":"xxxlavalxxx","files":3,"time":1463910342,"description":"http://extraimago.com/image/aUBQ\r\n \nhttp://www.imdb.com/title/tt3385516/\r\n\r\n\r\nWith the emergence of the world's first mutant, Apocalypse, the X-Men must unite to defeat his extinction level plan.\r\n\r\nDirector: Bryan Singer\r\nWriters: Simon Kinberg (screenplay), Bryan Singer (story)\r\nStars: James McAvoy, Michael Fassbender, Jennifer Lawrence\r\nGenres: Action | Adventure | Fantasy | Sci-Fi\r\nCountry: USA\r\nLanguage: English\r\n\r\n\r\nNew HQMic Audio definitely better then any other cam audio available right now. Post credit scene added, Full movie except starting intro is missing..\r\n\r\nSource: Portuguese720p and JzyB Audio thx.\r\nSample: yes included\r\n\r\nFormat                         : Matroska\r\nFormat version                 : Version 4 / Version 2\r\nFile size                      : 1.20 GiB\r\nDuration                       : 2h 11mn\r\nOverall bit rate               : 1 311 Kbps\r\n\r\n\r\nVideo\r\nID                             : 1\r\nFormat                         : AVC\r\nFormat/Info                    : Advanced Video Codec\r\nFormat profile                 :   \r\nFormat settings, CABAC         : Yes\r\nFormat settings, ReFrames      : 5 frames\r\nCodec ID                       : V_MPEG4/ISO/AVC\r\nDuration                       : 2h 11mn\r\nBit rate                       : 1 199 Kbps\r\nWidth                          : 1 264 pixels\r\nHeight                         : 512 pixels\r\nDisplay aspect ratio           : 2.469\r\nFrame rate mode                : Constant\r\nFrame rate                     : 23.976 (24000/1001) fps\r\nColor space                    : YUV\r\nChroma subsampling             : 4:2:0\r\nBit depth                      : 8 bits\r\nScan type                      : Progressive\r\nBits/(Pixel*Frame)             : 0.077\r\nStream size                    : 1.06 GiB (88%)\r\n\r\n\r\nAudio\r\nID                             : 2\r\nFormat                         : MPEG Audio\r\nFormat version                 : Version 1\r\nFormat profile                 : Layer 3\r\nCodec ID                       : A_MPEG/L3\r\nCodec ID/Hint                  : MP3\r\nDuration                       : 2h 11mn\r\nBit rate mode                  : Constant\r\nBit rate                       : 128 Kbps\r\nChannel(s)                     : 2 channels\r\nSampling rate                  : 44.1 KHz\r\nCompression mode               : Lossy\r\nDelay relative to video        : 200ms\r\nStream size                    : 120 MiB (10%)\r\nWriting library                : LAME3.99.5\r\nDefault                        : Yes\r\n\r\n \nhttp://extraimago.com/image/aUB3 \nhttp://extraimago.com/image/aUB9 \nhttp://extraimago.com/image/aUBM \nhttp://extraimago.com/image/aUBU \nhttp://extraimago.com/image/aUBz \nhttp://extraimago.com/image/aUB0 \nhttp://extraimago.com/image/aUBJ","torrent":{"xt":"urn:btih:f9a7c9da0263270ae525e2f1c8d40cbfb5aeba27","amp;dn":"X-Men+Apocalypse+2016+720p+HDCAM+x264+HQMic-Exclusive","amp;tr":["udp%3A%2F%2Ftracker.leechers-paradise.org%3A6969","udp%3A%2F%2Fzer0day.ch%3A1337","udp%3A%2F%2Fopen.demonii.com%3A1337","udp%3A%2F%2Ftracker.coppersurfer.tk%3A6969","udp%3A%2F%2Fexodus.desync.com%3A6969"],"infoHash":"f9a7c9da0263270ae525e2f1c8d40cbfb5aeba27","infoHashBuffer":{"type":"Buffer","data":[249,167,201,218,2,99,39,10,229,37,226,241,200,212,12,191,181,174,186,39]},"announce":[],"urlList":[]}}